# xmcd
#
# Track frame offsets:
#	150
#	24370
#	56474
#	79280
#	116384
#	148109
#	165170
#	193419
#	212240
#	250275
#	274122
#	308477
#
# Disc length: 4472 seconds
# Revision: 0
# Processed by: cddbd v1.5.2PL0 Copyright (c) Steve Scherf et al.
# Submitted via: dBpowerAMP V12.0
#
DISCID=a311760c
DTITLE=Robert Pete Williams - Live at Louise
DYEAR=2007
DGENRE=Blues
TTITLE0=Louise
TTITLE1=Big Fat Mama
TTITLE2=Mr. Charlie
TTITLE3=I Got the Blues
TTITLE4=Glory Hallelujah
TTITLE5=You Don't Have to Go
TTITLE6=Have Mercy on Me
TTITLE7=Greyhound Blues
TTITLE8=Out on the Highway
TTITLE9=My Woman Left Me
TTITLE10=Dying Bed Blues
TTITLE11=Railroad Slide
EXTD=
EXTT0=
EXTT1=
EXTT2=
EXTT3=
EXTT4=
EXTT5=
EXTT6=
EXTT7=
EXTT8=
EXTT9=
EXTT10=
EXTT11=
PLAYORDER=
